<svg xmlns="http://www.w3.org/2000/svg" viewBox="0 0 611.67 137.99"><defs><style>.cls-1{fill:#82ca9c;}.cls-2{fill:#2d2e36;}</style></defs><title>Asset 1</title><g id="Layer_2" data-name="Layer 2"><g id="Layer_1-2" data-name="Layer 1"><polygon class="cls-1" points="611.67 137.99 0 137.99 0 0 112.85 0 112.85 29.16 97.13 29.16 97.13 15.72 15.72 15.72 15.72 122.27 611.67 122.27 611.67 137.99"/><path class="cls-2" d="M97.14,42.61h15.72v66.22H97.41l-.81-9.67c-3.76,7.79-14.1,11.55-21.49,11.68C55.5,111,41,98.88,41,75.65,41,52.81,56.17,40.86,75.51,41c8.86,0,17.33,4.17,21.09,10.75Zm-39.76,33C57.38,88.27,66.11,95.8,77,95.8c25.79,0,25.79-40.16,0-40.16C66.11,55.64,57.38,63,57.38,75.65Z"/><path class="cls-2" d="M175.46,108.82V74.17c0-10.07-5.51-17.73-16-17.73-10.07,0-16.92,8.46-16.92,18.53v33.85H126.29V42.47h14.64l1.07,9c6.72-6.58,13.43-9.94,21.76-9.94,15.58,0,28.07,11.69,28.07,32.51v34.79Z"/><path class="cls-2" d="M258.47,42.61h15.72v66.22H258.74l-.81-9.67c-3.76,7.79-14.1,11.55-21.49,11.68-19.61.14-34.11-12-34.11-35.19,0-22.84,15.18-34.79,34.52-34.65,8.87,0,17.33,4.17,21.09,10.75Zm-39.76,33c0,12.62,8.73,20.15,19.61,20.15,25.79,0,25.79-40.16,0-40.16C227.44,55.64,218.71,63,218.71,75.65Z"/><path class="cls-2" d="M303.07,14.94V51.61C307,44.76,317.85,41,324.83,41c19.34,0,33.71,11.82,33.71,34.65,0,21.76-14.64,34.65-34.11,34.65-8.06,0-16.25-2.69-21.36-10.61L302,108.82H286.69V14.94Zm1.07,60.71c0,12,8.87,19.48,19.21,19.48s18.8-7.93,18.8-19.48c0-12-8.33-19.34-18.8-19.34A18.9,18.9,0,0,0,304.15,75.65Z"/><path class="cls-2" d="M436.46,75.78c0,19.07-13,34.52-34.52,34.52s-34.38-15.45-34.38-34.52,13.16-34.52,34.25-34.52S436.46,56.85,436.46,75.78Zm-52.52,0c0,10.07,6,19.47,18,19.47s18-9.4,18-19.47-7-19.61-18-19.61C390.12,56.17,383.94,65.84,383.94,75.78Z"/><path class="cls-2" d="M516.52,14.94v93.89H501.21l-1.07-9.13c-5.11,7.92-13.3,10.61-21.36,10.61-19.47,0-34.11-12.89-34.11-34.65C444.66,52.81,459,41,478.37,41c7,0,17.86,3.76,21.76,10.61V14.94ZM461,75.65c0,11.55,8.33,19.48,18.8,19.48s19.21-7.52,19.21-19.48a18.9,18.9,0,0,0-19.21-19.34C469.37,56.31,461,63.69,461,75.65Z"/><path class="cls-2" d="M546.21,81.56c1.07,8.19,8.19,14.1,19.74,14.1,6,0,14-2.28,17.73-6.18l10.48,10.34c-7,7.25-18.4,10.75-28.47,10.75-22.84,0-36.4-14.1-36.4-35.33,0-20.15,13.7-34.65,35.19-34.65,22.16,0,36,13.7,33.45,41Zm36-13.57C581.13,59.4,574.42,55.1,565,55.1c-8.87,0-16.12,4.3-18.54,12.89Z"/></g></g></svg>