<?xml version="1.0" encoding="utf-8"?>
<!-- Generator: Adobe Illustrator 20.1.0, SVG Export Plug-In . SVG Version: 6.00 Build 0)  -->
<svg version="1.1" id="Layer_1" xmlns="http://www.w3.org/2000/svg" xmlns:xlink="http://www.w3.org/1999/xlink" x="0px" y="0px"
	 viewBox="0 0 42.5 42.5" style="enable-background:new 0 0 42.5 42.5;" xml:space="preserve">
<style type="text/css">
	.st0{fill:none;stroke:#82CA9C;stroke-width:1.1;stroke-linecap:round;stroke-linejoin:round;stroke-miterlimit:10;}
	.st1{fill:none;stroke:#2D2E36;stroke-width:1.1;stroke-linecap:round;stroke-linejoin:round;stroke-miterlimit:10;}
</style>
<path class="st0" d="M34.9,30V12.5c0-0.6-0.5-1.1-1.1-1.1h-25c-0.6,0-1.1,0.5-1.1,1.1V30c0,0.6,0.5,1.1,1.1,1.1h25
	C34.4,31.1,34.9,30.6,34.9,30z"/>
<path class="st1" d="M21.3,17.6c0,0,2.8,3,2.8,4.5c0,1.5-1.3,2.8-2.8,2.8c-1.5,0-2.8-1.3-2.8-2.8C18.5,20.6,21.3,17.6,21.3,17.6z"/>
<line class="st0" x1="8" y1="11.7" x2="18.2" y2="18.7"/>
<line class="st0" x1="24.3" y1="18.7" x2="34.5" y2="11.7"/>
</svg>
