<?xml version="1.0" encoding="utf-8"?>
<!-- Generator: Adobe Illustrator 20.1.0, SVG Export Plug-In . SVG Version: 6.00 Build 0)  -->
<svg version="1.1" id="Layer_1" xmlns="http://www.w3.org/2000/svg" xmlns:xlink="http://www.w3.org/1999/xlink" x="0px" y="0px"
	 viewBox="0 0 28.3 28.3" style="enable-background:new 0 0 28.3 28.3;" xml:space="preserve">
<path style="fill:#82CA9C;" d="M14.2,3.7C8.4,3.7,3.7,8.4,3.7,14.2c0,5.8,4.7,10.5,10.5,10.5s10.5-4.7,10.5-10.5
	C24.6,8.4,19.9,3.7,14.2,3.7z M14.2,23.6c-5.2,0-9.4-4.2-9.4-9.4C4.8,9,9,4.8,14.2,4.8c5.2,0,9.4,4.2,9.4,9.4
	C23.6,19.4,19.4,23.6,14.2,23.6z"/>
<path style="fill:#2D2E36;" d="M18.7,13.4l-6.1-3.5c-0.6-0.3-1.3,0.1-1.3,0.8v7c0,0.7,0.7,1.1,1.3,0.8l6.1-3.5
	C19.3,14.6,19.3,13.7,18.7,13.4z"/>
</svg>
