<svg xmlns="http://www.w3.org/2000/svg" viewBox="0 0 912.69 763.24"><defs><style>.cls-1,.cls-2{fill:none;stroke-linecap:round;stroke-linejoin:round;stroke-width:32px;}.cls-1{stroke:#82ca9c;}.cls-2{stroke:#2d2e36;}</style></defs><title>Asset 3</title><g id="Layer_2" data-name="Layer 2"><g id="Layer_1-2" data-name="Layer 1"><path class="cls-1" d="M727.29,574.76A324.35,324.35,0,0,1,440.12,747.24C261.7,747.24,115.45,601,115.45,422.57q0-57,17.55-105.3"/><path class="cls-1" d="M92,308.5h0C141.77,138.85,279.25,16,440.12,16a320.19,320.19,0,0,1,72.59,8.31"/><line class="cls-1" x1="16" y1="308.5" x2="376.31" y2="308.5"/><path class="cls-2" d="M568.82,560c-43.87,8.77-87.75-8.77-128.7-26.32"/><path class="cls-2" d="M308.5,560c43.87,8.77,87.75-8.77,128.7-26.32"/><circle class="cls-1" cx="667" cy="284.92" r="229.69"/><line class="cls-2" x1="667" y1="183.82" x2="667" y2="386.03"/><line class="cls-2" x1="768.1" y1="284.92" x2="565.89" y2="284.92"/></g></g></svg>