<svg xmlns="http://www.w3.org/2000/svg" viewBox="0 0 765.66 765.66"><defs><style>.cls-1,.cls-2{fill:none;stroke-linecap:round;stroke-linejoin:round;stroke-width:32px;}.cls-1{stroke:#2d2e36;}.cls-2{stroke:#82ca9c;}</style></defs><title>Asset 2</title><g id="Layer_2" data-name="Layer 2"><g id="Layer_1-2" data-name="Layer 1"><polyline class="cls-1" points="739.71 112.31 366.67 516.47 190.29 353.67"/><polyline class="cls-2" points="685.18 257.59 749.66 309.86 710.09 382.83 749.66 455.8 685.18 508.07 693.81 590.62 614.24 614.24 590.62 693.81 508.07 685.18 455.8 749.66 382.83 710.09 309.86 749.66 257.59 685.18 175.04 693.81 151.42 614.24 71.85 590.62 80.48 508.07 16 455.8 55.56 382.83 16 309.86 80.48 257.59 71.85 175.04 151.42 151.42 175.04 71.85 257.59 80.48 309.86 16 382.83 55.56 455.8 16 508.07 80.48 590.62 71.85 614.24 151.42"/></g></g></svg>